<?xml version="1.0" standalone="no"?>
<!DOCTYPE svg PUBLIC "-//W3C//DTD SVG 20010904//EN"
 "http://www.w3.org/TR/2001/REC-SVG-20010904/DTD/svg10.dtd">
<svg version="1.0" xmlns="http://www.w3.org/2000/svg"
 width="504.000000pt" height="504.000000pt" viewBox="0 0 504.000000 504.000000"
 preserveAspectRatio="xMidYMid meet">
<metadata>
Created by potrace 1.14, written by Peter Selinger 2001-2017
</metadata>
<g transform="translate(0.000000,504.000000) scale(0.100000,-0.100000)"
fill="#000000" stroke="none">
<path d="M244 4785 c-17 -13 -17 -14 -1 -15 21 0 19 36 22 -400 1 -201 3 -368
4 -372 0 -5 42 -8 91 -8 65 0 90 4 91 13 1 6 2 138 3 292 l1 280 2110 1 2111
1 -1 -271 c0 -149 2 -281 4 -293 3 -22 8 -23 96 -23 l93 0 0 389 0 389 -2286
0 c-2092 0 -2287 1 -2297 16 -15 20 -16 20 -41 1z"/>
<path d="M3856 3628 c-32 -4 -84 -15 -115 -23 -31 -8 -65 -17 -76 -20 -34 -8
-175 -78 -175 -87 0 -4 -5 -8 -11 -8 -33 0 -181 -145 -244 -240 -73 -110 -142
-275 -161 -386 -3 -16 -7 -36 -9 -44 -19 -65 -31 -216 -29 -366 1 -137 5 -185
19 -299 16 -122 70 -311 96 -339 5 -6 9 -18 9 -28 0 -10 5 -18 10 -18 6 0 10
-7 10 -15 0 -37 133 -199 210 -256 127 -92 302 -139 508 -133 89 2 122 5 192
19 14 3 35 7 46 9 12 3 47 16 78 30 31 14 60 26 65 26 5 0 14 7 21 15 21 26
43 16 90 -41 43 -53 46 -55 85 -49 22 3 47 7 55 9 8 2 30 7 48 11 l32 8 2 356
c0 196 2 361 3 366 14 89 36 122 99 151 l49 23 3 60 c2 51 -1 61 -15 62 -23 1
-642 1 -666 0 -18 -1 -20 -8 -20 -58 1 -59 10 -88 25 -78 12 8 93 -31 117 -57
38 -42 47 -93 47 -273 1 -93 -2 -181 -5 -195 -17 -72 -61 -130 -121 -161 -56
-28 -66 -30 -203 -40 -149 -10 -306 91 -385 247 -19 36 -35 71 -37 78 -1 6
-14 49 -28 96 -14 47 -28 98 -30 115 -2 16 -6 46 -9 65 -15 105 -19 172 -19
335 0 163 5 262 19 327 2 13 7 37 9 53 3 17 13 55 21 85 9 30 17 60 19 65 8
37 55 139 72 157 9 10 13 18 9 18 -4 0 -2 6 4 13 6 6 23 29 39 49 59 77 173
151 254 165 58 10 196 6 244 -8 124 -34 208 -129 259 -291 l18 -58 103 0 c91
0 103 2 104 18 1 9 2 117 2 240 2 244 6 228 -58 238 -11 2 -62 12 -114 23 -51
11 -96 20 -100 19 -3 0 -8 1 -11 2 -44 18 -359 30 -454 18z"/>
<path d="M649 3608 c-1 -1 -2 -29 -4 -60 -2 -65 2 -71 63 -88 66 -17 100 -54
112 -122 7 -36 10 -348 8 -880 -3 -765 -4 -825 -21 -855 -17 -33 -80 -73 -114
-73 -37 0 -47 -17 -48 -79 l-1 -61 30 -1 c38 -1 666 -1 684 0 8 1 12 20 12 61
0 57 -2 61 -27 71 -109 43 -122 52 -134 88 -7 20 -14 47 -16 61 -5 44 -6 637
0 646 6 10 192 10 241 0 44 -8 101 -50 134 -98 42 -61 142 -238 135 -238 -3 0
0 -7 7 -15 6 -8 28 -45 47 -82 20 -37 56 -104 79 -148 24 -44 49 -91 56 -105
22 -44 122 -204 139 -224 16 -17 37 -18 253 -20 265 -1 245 -7 243 77 -2 35
-7 51 -20 59 -10 5 -21 7 -24 4 -3 -3 -14 -1 -25 5 -11 6 -28 12 -38 14 -34 7
-99 76 -155 165 -30 48 -55 92 -55 99 0 6 -3 11 -8 11 -4 0 -13 14 -21 31 -14
31 -112 211 -131 239 -6 8 -13 22 -17 30 -33 74 -141 206 -213 261 l-34 26 71
37 c67 35 88 51 173 129 98 90 167 218 185 343 5 38 9 173 5 184 -1 3 -3 16
-5 30 -13 117 -56 209 -135 288 -46 46 -149 114 -179 118 -3 0 -19 6 -34 12
-32 13 -141 40 -202 48 -43 7 -1014 18 -1016 12z m918 -215 c31 -8 74 -23 95
-34 84 -43 155 -143 174 -244 14 -75 6 -246 -14 -311 -49 -157 -168 -254 -332
-270 -91 -9 -291 -11 -296 -2 -4 5 -8 720 -5 846 l1 33 160 -1 c105 -1 179 -7
217 -17z"/>
<path d="M271 820 c-4 -3 -7 -150 -7 -328 l1 -322 2300 2 2300 3 1 320 c0 176
-3 323 -8 326 -11 7 -167 4 -175 -4 -3 -4 -7 -107 -7 -229 l-1 -223 -2110 0
-2110 0 -1 215 c-1 118 -2 222 -3 230 -1 13 -17 16 -87 15 -47 0 -89 -2 -93
-5z"/>
</g>
</svg>
