<?xml version="1.0" standalone="no"?>
<!DOCTYPE svg PUBLIC "-//W3C//DTD SVG 20010904//EN"
 "http://www.w3.org/TR/2001/REC-SVG-20010904/DTD/svg10.dtd">
<svg version="1.0" xmlns="http://www.w3.org/2000/svg"
 width="508.000000pt" height="508.000000pt" viewBox="0 0 508.000000 508.000000"
 preserveAspectRatio="xMidYMid meet">
<metadata>
Created by potrace 1.14, written by Peter Selinger 2001-2017
</metadata>
<g transform="translate(0.000000,508.000000) scale(0.100000,-0.100000)"
fill="#000000" stroke="none">
<path d="M240 4825 c-11 -13 -10 -14 4 -9 9 3 16 10 16 15 0 13 -6 11 -20 -6z"/>
<path d="M250 4790 c-19 -15 -21 -20 -9 -20 9 0 19 -6 21 -12 2 -7 4 -174 3
-370 l0 -358 92 0 93 0 2 292 3 293 2090 0 2090 0 3 -293 2 -292 95 0 95 0 0
385 0 385 -2257 0 c-1242 0 -2267 2 -2278 5 -11 3 -31 -3 -45 -15z"/>
<path d="M3820 3667 c-458 -41 -766 -395 -826 -952 -13 -113 -7 -401 10 -491
2 -11 7 -39 11 -64 14 -86 16 -95 37 -165 29 -99 98 -240 149 -305 143 -182
330 -268 595 -274 170 -4 310 24 424 85 l60 32 58 -61 57 -61 64 19 c34 11 70
20 80 20 15 0 17 28 17 363 1 241 5 376 13 403 15 57 43 89 96 110 l45 19 0
65 0 65 -347 0 -348 0 -3 -66 -3 -65 57 -20 c112 -38 137 -97 137 -328 -1
-217 -28 -288 -133 -341 -106 -54 -280 -50 -395 7 -126 64 -238 266 -275 498
-6 41 -14 86 -17 100 -10 42 -12 482 -3 530 5 25 11 65 15 90 19 130 76 288
138 380 112 167 267 234 477 206 75 -10 142 -45 196 -102 23 -24 85 -146 108
-214 l16 -45 105 0 105 0 1 105 c0 99 0 337 -1 371 0 12 -30 22 -132 42 -170
33 -185 35 -293 42 -147 10 -206 10 -295 2z"/>
<path d="M612 3584 l3 -66 62 -23 c77 -27 100 -54 109 -125 13 -97 8 -1639 -5
-1688 -13 -47 -37 -67 -115 -93 l-51 -18 -3 -65 -3 -66 364 0 363 0 0 66 -1
67 -49 14 c-58 17 -93 38 -107 66 -18 33 -23 117 -23 422 l-1 290 105 3 c62 2
123 -2 149 -9 86 -24 128 -85 341 -494 28 -55 56 -107 61 -115 5 -8 34 -60 65
-115 30 -55 70 -121 87 -147 l32 -47 242 -1 241 0 4 54 c5 79 2 83 -47 90
-105 16 -169 92 -333 396 -22 41 -54 102 -72 135 -78 145 -186 281 -260 327
l-24 15 45 20 c65 29 160 96 218 154 52 51 131 173 131 200 0 8 4 19 8 25 16
17 34 118 36 199 7 274 -118 458 -367 539 -42 14 -96 28 -119 31 -24 4 -63 10
-88 15 -25 5 -260 9 -523 10 l-478 0 3 -66z m948 -163 c107 -37 160 -85 205
-183 27 -61 34 -100 35 -195 2 -175 -36 -285 -124 -366 -40 -36 -140 -84 -191
-92 -74 -10 -325 -17 -326 -8 -7 51 -2 860 5 865 5 3 82 5 170 4 136 -3 171
-6 226 -25z"/>
<path d="M269 885 c-4 0 -3 -638 1 -644 3 -3 1030 -7 2283 -6 l2277 0 0 326 0
325 -92 0 -93 -1 -5 -230 -5 -230 -2090 0 -2090 0 -3 231 -2 230 -90 -1 c-50
0 -91 0 -91 0z"/>
</g>
</svg>
